<svg xmlns="http://www.w3.org/2000/svg" width="140" height="200" viewBox="0 0 140 200">
<defs>
  <linearGradient id="bg_defuse1" x1="0" y1="0" x2="1" y2="1"><stop offset="0%" stop-color="#0a3d18"/><stop offset="100%" stop-color="#03190a"/></linearGradient>
  <linearGradient id="ov_defuse1" x1="0" y1="0" x2="0" y2="1"><stop offset="0%" stop-color="black" stop-opacity="0"/><stop offset="100%" stop-color="black" stop-opacity="0.42"/></linearGradient>
  <filter id="sd_defuse1"><feDropShadow dx="0" dy="4" stdDeviation="6" flood-color="black" flood-opacity="0.6"/></filter>
  <radialGradient id="bgGlow_defuse1" cx="50%" cy="45%" r="55%"><stop offset="0%" stop-color="#00ff44" stop-opacity="0.2"/><stop offset="60%" stop-color="#00ff44" stop-opacity="0.06"/><stop offset="100%" stop-color="#00ff44" stop-opacity="0"/></radialGradient>
</defs>
<g filter="url(#sd_defuse1)"><rect width="140" height="200" rx="14" fill="url(#bg_defuse1)"/></g>
<rect x="1.5" y="1.5" width="137" height="197" rx="13" fill="none" stroke="white" stroke-width="0.8" opacity="0.13"/>
<rect width="140" height="200" rx="14" fill="url(#bgGlow_defuse1)"/>
<rect x="0" y="146" width="140" height="54" fill="url(#ov_defuse1)"/>
<g transform="translate(0,4)" opacity="0.97">
<g transform="translate(0,4)">
  <ellipse cx="70" cy="118" rx="36" ry="5" fill="#00ff44" opacity="0.18"/>

  <!-- Bandage 1: top-left to bottom-right -->
  <g transform="translate(70,84) rotate(45)">
    <rect x="-34" y="-11" width="68" height="22" rx="8" fill="#1a5a1a" opacity="0.22"/>
    <rect x="-32" y="-9" width="64" height="18" rx="7" fill="#f5f0e8" stroke="#ccc5b5" stroke-width="1"/>
    <line x1="-24" y1="-9" x2="-24" y2="9" stroke="#e0dbd0" stroke-width="0.9" opacity="0.7"/>
    <line x1="-14" y1="-9" x2="-14" y2="9" stroke="#e0dbd0" stroke-width="0.9" opacity="0.7"/>
    <line x1="-4" y1="-9" x2="-4" y2="9" stroke="#e0dbd0" stroke-width="0.9" opacity="0.7"/>
    <line x1="6" y1="-9" x2="6" y2="9" stroke="#e0dbd0" stroke-width="0.9" opacity="0.7"/>
    <line x1="16" y1="-9" x2="16" y2="9" stroke="#e0dbd0" stroke-width="0.9" opacity="0.7"/>
    <line x1="26" y1="-9" x2="26" y2="9" stroke="#e0dbd0" stroke-width="0.9" opacity="0.7"/>
    <line x1="-26" y1="0" x2="26" y2="0" stroke="#c0b8a8" stroke-width="0.8" stroke-dasharray="3 3" opacity="0.55"/>
    <rect x="-11" y="-7" width="22" height="14" rx="3.5" fill="#e8e0d0" stroke="#b8b0a0" stroke-width="0.8"/>
    <rect x="-8" y="-5" width="16" height="10" rx="2" fill="#ddd5c5" opacity="0.8"/>
  </g>

  <!-- Bandage 2: bottom-left to top-right -->
  <g transform="translate(70,84) rotate(-45)">
    <rect x="-34" y="-11" width="68" height="22" rx="8" fill="#f0ebe3" stroke="#c8c0b0" stroke-width="1"/>
    <line x1="-24" y1="-9" x2="-24" y2="9" stroke="#d8d0c0" stroke-width="0.9" opacity="0.6"/>
    <line x1="-14" y1="-9" x2="-14" y2="9" stroke="#d8d0c0" stroke-width="0.9" opacity="0.6"/>
    <line x1="-4" y1="-9" x2="-4" y2="9" stroke="#d8d0c0" stroke-width="0.9" opacity="0.6"/>
    <line x1="6" y1="-9" x2="6" y2="9" stroke="#d8d0c0" stroke-width="0.9" opacity="0.6"/>
    <line x1="16" y1="-9" x2="16" y2="9" stroke="#d8d0c0" stroke-width="0.9" opacity="0.6"/>
    <line x1="26" y1="-9" x2="26" y2="9" stroke="#d8d0c0" stroke-width="0.9" opacity="0.6"/>
    <line x1="-26" y1="0" x2="26" y2="0" stroke="#b0a898" stroke-width="0.8" stroke-dasharray="3 3" opacity="0.5"/>
    <rect x="-11" y="-7" width="22" height="14" rx="3.5" fill="#ddd5c0" stroke="#b0a898" stroke-width="0.8"/>
    <rect x="-8" y="-5" width="16" height="10" rx="2" fill="#ccc4b4" opacity="0.7"/>
  </g>

  <!-- Cotton ball on top (fluffy) -->
  <g transform="translate(70,72)">
    <circle cx="0" cy="0" r="14" fill="#f8f5f0"/>
    <circle cx="-7" cy="-8" r="8" fill="#faf7f2"/>
    <circle cx="7" cy="-7" r="7.5" fill="#faf7f2"/>
    <circle cx="-10" cy="4" r="7" fill="#f8f5f0"/>
    <circle cx="8" cy="5" r="7" fill="#f8f5f0"/>
    <circle cx="0" cy="0" r="7" fill="#f0ece5"/>
    <!-- Red cross on cotton -->
    <rect x="-6" y="-1.8" width="12" height="3.6" rx="1.5" fill="#dd4444"/>
    <rect x="-1.8" y="-6" width="3.6" height="12" rx="1.5" fill="#dd4444"/>
    <circle cx="-4" cy="-5" r="1" fill="#e0d8d0" opacity="0.7"/>
    <circle cx="5" cy="3" r="1" fill="#e0d8d0" opacity="0.7"/>
    <circle cx="-8" cy="0" r="0.9" fill="#e0d8d0" opacity="0.6"/>
  </g>

  <!-- Red border ring -->
  <circle cx="70" cy="84" r="44" fill="none" stroke="#cc3333" stroke-width="2.5" opacity="0.45"/>
  <circle cx="70" cy="84" r="40" fill="none" stroke="#ee4444" stroke-width="1.2" opacity="0.28"/>

  <!-- Sparkles -->
  <circle cx="30" cy="58" r="2" fill="#88ffaa" opacity="0.7"/>
  <circle cx="110" cy="62" r="2" fill="#88ffaa" opacity="0.7"/>
  <circle cx="24" cy="110" r="1.5" fill="#88ffaa" opacity="0.5"/>
  <circle cx="116" cy="106" r="1.5" fill="#88ffaa" opacity="0.5"/>
  <circle cx="70" cy="24" r="1.5" fill="#ffffff" opacity="0.5"/>
</g></g>
<text x="70" y="180" text-anchor="middle" font-family="'Arial Black','Segoe UI Black',sans-serif" font-size="13" font-weight="900" fill="white" letter-spacing="1.5">CỨU</text>
</svg>